G04 MADE WITH FRITZING*
G04 WWW.FRITZING.ORG*
G04 DOUBLE SIDED*
G04 HOLES PLATED*
G04 CONTOUR ON CENTER OF CONTOUR VECTOR*
%ASAXBY*%
%FSLAX23Y23*%
%MOIN*%
%OFA0B0*%
%SFA1.0B1.0*%
%ADD10C,0.138425*%
%ADD11C,0.070000*%
%ADD12C,0.060000*%
%ADD13C,0.075000*%
%ADD14C,0.074000*%
%ADD15C,0.062992*%
%ADD16C,0.080000*%
%ADD17C,0.064000*%
%ADD18C,0.078000*%
%ADD19C,0.039370*%
%ADD20R,0.075000X0.075000*%
%ADD21R,0.062992X0.062992*%
%ADD22R,0.080000X0.080000*%
%ADD23C,0.024000*%
%ADD24R,0.001000X0.001000*%
%LNCOPPER0*%
G90*
G70*
G54D10*
X1815Y2171D03*
X1815Y871D03*
G54D11*
X1665Y2191D03*
X1565Y2191D03*
X1465Y2191D03*
X1365Y2191D03*
X1265Y2191D03*
X1165Y2191D03*
X1815Y1021D03*
X1815Y1121D03*
X1815Y1221D03*
X1815Y1321D03*
X1815Y1421D03*
X1815Y1521D03*
X1815Y1621D03*
X1815Y1721D03*
X1815Y1821D03*
G54D10*
X1015Y871D03*
G54D11*
X1815Y1921D03*
G54D10*
X1015Y2171D03*
G54D11*
X1015Y1921D03*
X1015Y1821D03*
X1015Y1721D03*
X1015Y1621D03*
X1015Y1521D03*
X1015Y1421D03*
X1015Y1321D03*
X1015Y1221D03*
X1015Y1121D03*
X1015Y1021D03*
G54D12*
X1765Y2691D03*
X1865Y2691D03*
X1965Y2691D03*
G54D13*
X2765Y2891D03*
X2965Y2891D03*
X765Y2891D03*
X965Y2891D03*
G54D14*
X765Y3391D03*
X865Y3391D03*
X965Y3391D03*
G54D15*
X3565Y3192D03*
X3565Y3291D03*
G54D13*
X2765Y3291D03*
X3165Y3291D03*
G54D16*
X165Y2591D03*
X165Y2729D03*
G54D17*
X4565Y1427D03*
X4647Y1809D03*
X4747Y1309D03*
X4829Y1691D03*
X4747Y1809D03*
X4829Y1427D03*
X4647Y1309D03*
X4510Y1559D03*
X4884Y1559D03*
X4565Y1691D03*
G54D13*
X3865Y691D03*
X4265Y691D03*
X4565Y691D03*
X4965Y691D03*
X2965Y1991D03*
X3265Y1991D03*
G54D14*
X3665Y2091D03*
X3665Y1891D03*
X3865Y1991D03*
G54D15*
X2265Y1292D03*
X2265Y1391D03*
G54D18*
X2315Y2041D03*
X2315Y1941D03*
X565Y1891D03*
X565Y1791D03*
X565Y1691D03*
X565Y1591D03*
X565Y1491D03*
X565Y1391D03*
G54D11*
X4765Y2391D03*
X4765Y2491D03*
X4765Y2591D03*
X4765Y2691D03*
X4765Y2791D03*
X4765Y2891D03*
X4765Y2991D03*
X4765Y3091D03*
X4765Y3191D03*
X4765Y3291D03*
G54D18*
X4065Y2991D03*
X4065Y2891D03*
X4065Y2791D03*
X5665Y2591D03*
X5665Y2491D03*
X5665Y2391D03*
X565Y991D03*
X565Y891D03*
X565Y791D03*
X565Y691D03*
X565Y591D03*
X565Y491D03*
G54D19*
X829Y1199D03*
X709Y1031D03*
X829Y1103D03*
X3013Y1319D03*
X781Y2159D03*
X1717Y2591D03*
X2509Y1367D03*
G54D11*
X3465Y991D03*
X3365Y991D03*
X3265Y991D03*
X3165Y991D03*
X3065Y991D03*
X2965Y991D03*
X2865Y991D03*
G54D19*
X2865Y1391D03*
X3663Y691D03*
G54D20*
X2765Y2891D03*
X765Y2891D03*
G54D21*
X3565Y3192D03*
G54D22*
X165Y2591D03*
G54D21*
X2265Y1292D03*
G54D23*
X3653Y1863D02*
X3278Y1019D01*
D02*
X3194Y3291D02*
X3538Y3291D01*
D02*
X843Y3369D02*
X188Y2750D01*
D02*
X965Y3360D02*
X965Y2919D01*
D02*
X1735Y2698D02*
X993Y2884D01*
D02*
X4741Y2672D02*
X3890Y2010D01*
D02*
X4294Y691D02*
X4537Y691D01*
D02*
X1846Y1124D02*
X2893Y1247D01*
D02*
X2893Y1247D02*
X3445Y1247D01*
D02*
X3445Y1247D02*
X3848Y714D01*
D02*
X993Y1499D02*
X637Y1151D01*
D02*
X637Y1151D02*
X637Y551D01*
D02*
X637Y551D02*
X588Y510D01*
D02*
X993Y1599D02*
X589Y1199D01*
D02*
X589Y1199D02*
X493Y1031D01*
D02*
X493Y1031D02*
X493Y623D01*
D02*
X493Y623D02*
X538Y603D01*
D02*
X987Y1133D02*
X846Y1192D01*
D02*
X4765Y2960D02*
X4765Y2922D01*
D02*
X1038Y1341D02*
X1765Y1991D01*
D02*
X1765Y1991D02*
X2285Y1944D01*
D02*
X1793Y1600D02*
X1093Y959D01*
D02*
X1093Y959D02*
X949Y959D01*
D02*
X949Y959D02*
X727Y1026D01*
D02*
X1038Y1442D02*
X1717Y2063D01*
D02*
X1717Y2063D02*
X2165Y2091D01*
D02*
X2165Y2091D02*
X2287Y2050D01*
D02*
X987Y1033D02*
X846Y1096D01*
D02*
X4091Y3006D02*
X4717Y3359D01*
D02*
X4717Y3359D02*
X4965Y3391D01*
D02*
X4965Y3391D02*
X4965Y2291D01*
D02*
X4965Y2291D02*
X4664Y1835D01*
D02*
X3590Y3182D02*
X4037Y3002D01*
D02*
X2991Y2904D02*
X3541Y3180D01*
D02*
X1996Y2695D02*
X2941Y2831D01*
D02*
X2941Y2831D02*
X2954Y2864D01*
D02*
X2987Y2009D02*
X4042Y2872D01*
D02*
X3011Y1338D02*
X2967Y1962D01*
D02*
X985Y1728D02*
X781Y1775D01*
D02*
X781Y1775D02*
X781Y2140D01*
D02*
X2765Y2919D02*
X2765Y3262D01*
D02*
X1859Y2721D02*
X1861Y2711D01*
D02*
X1861Y2711D02*
X2029Y2855D01*
D02*
X2029Y2855D02*
X2737Y2889D01*
D02*
X1190Y2209D02*
X1701Y2580D01*
D02*
X579Y1917D02*
X733Y2207D01*
D02*
X733Y2207D02*
X829Y2207D01*
D02*
X829Y2207D02*
X998Y1947D01*
D02*
X191Y2573D02*
X733Y2207D01*
D02*
X764Y2862D02*
X733Y2207D01*
D02*
X2248Y1411D02*
X1835Y1897D01*
D02*
X2490Y1369D02*
X2292Y1388D01*
D02*
X4053Y2763D02*
X3678Y1919D01*
D02*
X4739Y3175D02*
X4091Y2806D01*
D02*
X4729Y1334D02*
X4621Y1487D01*
D02*
X4621Y1487D02*
X4453Y1487D01*
D02*
X4453Y1487D02*
X3693Y1877D01*
D02*
X4956Y718D02*
X4758Y1280D01*
D02*
X2335Y2018D02*
X2853Y1405D01*
D02*
X2968Y691D02*
X3644Y691D01*
D02*
X2966Y960D02*
X2968Y691D01*
D02*
X1966Y2493D02*
X1965Y2660D01*
D02*
X1387Y2212D02*
X1468Y2290D01*
D02*
X1468Y2290D02*
X1966Y2493D01*
G54D24*
X1758Y2751D02*
X1771Y2751D01*
X1858Y2751D02*
X1871Y2751D01*
X1958Y2751D02*
X1971Y2751D01*
X1755Y2750D02*
X1774Y2750D01*
X1855Y2750D02*
X1874Y2750D01*
X1955Y2750D02*
X1974Y2750D01*
X1753Y2749D02*
X1777Y2749D01*
X1853Y2749D02*
X1877Y2749D01*
X1953Y2749D02*
X1977Y2749D01*
X1751Y2748D02*
X1779Y2748D01*
X1851Y2748D02*
X1879Y2748D01*
X1951Y2748D02*
X1979Y2748D01*
X1749Y2747D02*
X1781Y2747D01*
X1849Y2747D02*
X1881Y2747D01*
X1949Y2747D02*
X1981Y2747D01*
X1748Y2746D02*
X1782Y2746D01*
X1848Y2746D02*
X1882Y2746D01*
X1948Y2746D02*
X1982Y2746D01*
X1746Y2745D02*
X1783Y2745D01*
X1846Y2745D02*
X1883Y2745D01*
X1946Y2745D02*
X1983Y2745D01*
X1745Y2744D02*
X1784Y2744D01*
X1845Y2744D02*
X1884Y2744D01*
X1945Y2744D02*
X1984Y2744D01*
X1744Y2743D02*
X1785Y2743D01*
X1844Y2743D02*
X1885Y2743D01*
X1944Y2743D02*
X1985Y2743D01*
X1743Y2742D02*
X1786Y2742D01*
X1843Y2742D02*
X1886Y2742D01*
X1943Y2742D02*
X1986Y2742D01*
X1742Y2741D02*
X1787Y2741D01*
X1842Y2741D02*
X1887Y2741D01*
X1942Y2741D02*
X1987Y2741D01*
X1741Y2740D02*
X1788Y2740D01*
X1841Y2740D02*
X1888Y2740D01*
X1941Y2740D02*
X1988Y2740D01*
X1741Y2739D02*
X1789Y2739D01*
X1841Y2739D02*
X1889Y2739D01*
X1941Y2739D02*
X1989Y2739D01*
X1740Y2738D02*
X1790Y2738D01*
X1840Y2738D02*
X1890Y2738D01*
X1940Y2738D02*
X1990Y2738D01*
X1739Y2737D02*
X1790Y2737D01*
X1839Y2737D02*
X1890Y2737D01*
X1939Y2737D02*
X1990Y2737D01*
X1739Y2736D02*
X1791Y2736D01*
X1839Y2736D02*
X1891Y2736D01*
X1939Y2736D02*
X1991Y2736D01*
X1738Y2735D02*
X1791Y2735D01*
X1838Y2735D02*
X1891Y2735D01*
X1938Y2735D02*
X1991Y2735D01*
X1738Y2734D02*
X1792Y2734D01*
X1838Y2734D02*
X1892Y2734D01*
X1938Y2734D02*
X1992Y2734D01*
X1737Y2733D02*
X1792Y2733D01*
X1837Y2733D02*
X1892Y2733D01*
X1937Y2733D02*
X1992Y2733D01*
X1737Y2732D02*
X1792Y2732D01*
X1837Y2732D02*
X1892Y2732D01*
X1937Y2732D02*
X1992Y2732D01*
X1737Y2731D02*
X1793Y2731D01*
X1837Y2731D02*
X1893Y2731D01*
X1937Y2731D02*
X1993Y2731D01*
X1736Y2730D02*
X1793Y2730D01*
X1836Y2730D02*
X1893Y2730D01*
X1936Y2730D02*
X1993Y2730D01*
X1736Y2729D02*
X1793Y2729D01*
X1836Y2729D02*
X1893Y2729D01*
X1936Y2729D02*
X1993Y2729D01*
X1736Y2728D02*
X1794Y2728D01*
X1836Y2728D02*
X1894Y2728D01*
X1936Y2728D02*
X1994Y2728D01*
X1736Y2727D02*
X1794Y2727D01*
X1836Y2727D02*
X1894Y2727D01*
X1936Y2727D02*
X1994Y2727D01*
X1736Y2726D02*
X1794Y2726D01*
X1836Y2726D02*
X1894Y2726D01*
X1936Y2726D02*
X1994Y2726D01*
X1735Y2725D02*
X1794Y2725D01*
X1835Y2725D02*
X1894Y2725D01*
X1935Y2725D02*
X1994Y2725D01*
X1735Y2724D02*
X1794Y2724D01*
X1835Y2724D02*
X1894Y2724D01*
X1935Y2724D02*
X1994Y2724D01*
X1735Y2723D02*
X1794Y2723D01*
X1835Y2723D02*
X1894Y2723D01*
X1935Y2723D02*
X1994Y2723D01*
X1735Y2722D02*
X1794Y2722D01*
X1835Y2722D02*
X1894Y2722D01*
X1935Y2722D02*
X1994Y2722D01*
X1735Y2721D02*
X1794Y2721D01*
X1835Y2721D02*
X1894Y2721D01*
X1935Y2721D02*
X1994Y2721D01*
X1735Y2720D02*
X1794Y2720D01*
X1835Y2720D02*
X1894Y2720D01*
X1935Y2720D02*
X1994Y2720D01*
X1735Y2719D02*
X1794Y2719D01*
X1835Y2719D02*
X1894Y2719D01*
X1935Y2719D02*
X1994Y2719D01*
X1735Y2718D02*
X1794Y2718D01*
X1835Y2718D02*
X1894Y2718D01*
X1935Y2718D02*
X1994Y2718D01*
X1735Y2717D02*
X1794Y2717D01*
X1835Y2717D02*
X1894Y2717D01*
X1935Y2717D02*
X1994Y2717D01*
X1735Y2716D02*
X1794Y2716D01*
X1835Y2716D02*
X1894Y2716D01*
X1935Y2716D02*
X1994Y2716D01*
X1735Y2715D02*
X1794Y2715D01*
X1835Y2715D02*
X1894Y2715D01*
X1935Y2715D02*
X1994Y2715D01*
X1735Y2714D02*
X1794Y2714D01*
X1835Y2714D02*
X1894Y2714D01*
X1935Y2714D02*
X1994Y2714D01*
X1735Y2713D02*
X1794Y2713D01*
X1835Y2713D02*
X1894Y2713D01*
X1935Y2713D02*
X1994Y2713D01*
X1735Y2712D02*
X1794Y2712D01*
X1835Y2712D02*
X1894Y2712D01*
X1935Y2712D02*
X1994Y2712D01*
X1735Y2711D02*
X1759Y2711D01*
X1771Y2711D02*
X1794Y2711D01*
X1835Y2711D02*
X1859Y2711D01*
X1871Y2711D02*
X1894Y2711D01*
X1935Y2711D02*
X1959Y2711D01*
X1971Y2711D02*
X1994Y2711D01*
X1735Y2710D02*
X1756Y2710D01*
X1774Y2710D02*
X1794Y2710D01*
X1835Y2710D02*
X1856Y2710D01*
X1874Y2710D02*
X1894Y2710D01*
X1935Y2710D02*
X1956Y2710D01*
X1974Y2710D02*
X1994Y2710D01*
X1735Y2709D02*
X1754Y2709D01*
X1775Y2709D02*
X1794Y2709D01*
X1835Y2709D02*
X1854Y2709D01*
X1875Y2709D02*
X1894Y2709D01*
X1935Y2709D02*
X1954Y2709D01*
X1975Y2709D02*
X1994Y2709D01*
X1735Y2708D02*
X1753Y2708D01*
X1777Y2708D02*
X1794Y2708D01*
X1835Y2708D02*
X1853Y2708D01*
X1877Y2708D02*
X1894Y2708D01*
X1935Y2708D02*
X1953Y2708D01*
X1977Y2708D02*
X1994Y2708D01*
X1735Y2707D02*
X1751Y2707D01*
X1778Y2707D02*
X1794Y2707D01*
X1835Y2707D02*
X1851Y2707D01*
X1878Y2707D02*
X1894Y2707D01*
X1935Y2707D02*
X1951Y2707D01*
X1978Y2707D02*
X1994Y2707D01*
X1735Y2706D02*
X1750Y2706D01*
X1779Y2706D02*
X1794Y2706D01*
X1835Y2706D02*
X1850Y2706D01*
X1879Y2706D02*
X1894Y2706D01*
X1935Y2706D02*
X1950Y2706D01*
X1979Y2706D02*
X1994Y2706D01*
X1735Y2705D02*
X1749Y2705D01*
X1780Y2705D02*
X1794Y2705D01*
X1835Y2705D02*
X1849Y2705D01*
X1880Y2705D02*
X1894Y2705D01*
X1935Y2705D02*
X1949Y2705D01*
X1980Y2705D02*
X1994Y2705D01*
X1735Y2704D02*
X1749Y2704D01*
X1781Y2704D02*
X1794Y2704D01*
X1835Y2704D02*
X1849Y2704D01*
X1881Y2704D02*
X1894Y2704D01*
X1935Y2704D02*
X1949Y2704D01*
X1981Y2704D02*
X1994Y2704D01*
X1735Y2703D02*
X1748Y2703D01*
X1782Y2703D02*
X1794Y2703D01*
X1835Y2703D02*
X1848Y2703D01*
X1882Y2703D02*
X1894Y2703D01*
X1935Y2703D02*
X1948Y2703D01*
X1982Y2703D02*
X1994Y2703D01*
X1735Y2702D02*
X1747Y2702D01*
X1782Y2702D02*
X1794Y2702D01*
X1835Y2702D02*
X1847Y2702D01*
X1882Y2702D02*
X1894Y2702D01*
X1935Y2702D02*
X1947Y2702D01*
X1982Y2702D02*
X1994Y2702D01*
X1735Y2701D02*
X1747Y2701D01*
X1783Y2701D02*
X1794Y2701D01*
X1835Y2701D02*
X1847Y2701D01*
X1883Y2701D02*
X1894Y2701D01*
X1935Y2701D02*
X1947Y2701D01*
X1983Y2701D02*
X1994Y2701D01*
X1735Y2700D02*
X1746Y2700D01*
X1783Y2700D02*
X1794Y2700D01*
X1835Y2700D02*
X1846Y2700D01*
X1883Y2700D02*
X1894Y2700D01*
X1935Y2700D02*
X1946Y2700D01*
X1983Y2700D02*
X1994Y2700D01*
X1735Y2699D02*
X1746Y2699D01*
X1784Y2699D02*
X1794Y2699D01*
X1835Y2699D02*
X1846Y2699D01*
X1884Y2699D02*
X1894Y2699D01*
X1935Y2699D02*
X1946Y2699D01*
X1984Y2699D02*
X1994Y2699D01*
X1735Y2698D02*
X1745Y2698D01*
X1784Y2698D02*
X1794Y2698D01*
X1835Y2698D02*
X1845Y2698D01*
X1884Y2698D02*
X1894Y2698D01*
X1935Y2698D02*
X1945Y2698D01*
X1984Y2698D02*
X1994Y2698D01*
X1735Y2697D02*
X1745Y2697D01*
X1785Y2697D02*
X1794Y2697D01*
X1835Y2697D02*
X1845Y2697D01*
X1885Y2697D02*
X1894Y2697D01*
X1935Y2697D02*
X1945Y2697D01*
X1985Y2697D02*
X1994Y2697D01*
X1735Y2696D02*
X1745Y2696D01*
X1785Y2696D02*
X1794Y2696D01*
X1835Y2696D02*
X1845Y2696D01*
X1885Y2696D02*
X1894Y2696D01*
X1935Y2696D02*
X1945Y2696D01*
X1985Y2696D02*
X1994Y2696D01*
X1735Y2695D02*
X1745Y2695D01*
X1785Y2695D02*
X1794Y2695D01*
X1835Y2695D02*
X1845Y2695D01*
X1885Y2695D02*
X1894Y2695D01*
X1935Y2695D02*
X1945Y2695D01*
X1985Y2695D02*
X1994Y2695D01*
X1735Y2694D02*
X1744Y2694D01*
X1785Y2694D02*
X1794Y2694D01*
X1835Y2694D02*
X1844Y2694D01*
X1885Y2694D02*
X1894Y2694D01*
X1935Y2694D02*
X1944Y2694D01*
X1985Y2694D02*
X1994Y2694D01*
X1735Y2693D02*
X1744Y2693D01*
X1785Y2693D02*
X1794Y2693D01*
X1835Y2693D02*
X1844Y2693D01*
X1885Y2693D02*
X1894Y2693D01*
X1935Y2693D02*
X1944Y2693D01*
X1985Y2693D02*
X1994Y2693D01*
X1735Y2692D02*
X1744Y2692D01*
X1785Y2692D02*
X1794Y2692D01*
X1835Y2692D02*
X1844Y2692D01*
X1885Y2692D02*
X1894Y2692D01*
X1935Y2692D02*
X1944Y2692D01*
X1985Y2692D02*
X1994Y2692D01*
X1735Y2691D02*
X1744Y2691D01*
X1785Y2691D02*
X1794Y2691D01*
X1835Y2691D02*
X1844Y2691D01*
X1885Y2691D02*
X1894Y2691D01*
X1935Y2691D02*
X1944Y2691D01*
X1985Y2691D02*
X1994Y2691D01*
X1735Y2690D02*
X1744Y2690D01*
X1785Y2690D02*
X1794Y2690D01*
X1835Y2690D02*
X1844Y2690D01*
X1885Y2690D02*
X1894Y2690D01*
X1935Y2690D02*
X1944Y2690D01*
X1985Y2690D02*
X1994Y2690D01*
X1735Y2689D02*
X1745Y2689D01*
X1785Y2689D02*
X1794Y2689D01*
X1835Y2689D02*
X1845Y2689D01*
X1885Y2689D02*
X1894Y2689D01*
X1935Y2689D02*
X1945Y2689D01*
X1985Y2689D02*
X1994Y2689D01*
X1735Y2688D02*
X1745Y2688D01*
X1785Y2688D02*
X1794Y2688D01*
X1835Y2688D02*
X1845Y2688D01*
X1885Y2688D02*
X1894Y2688D01*
X1935Y2688D02*
X1945Y2688D01*
X1985Y2688D02*
X1994Y2688D01*
X1735Y2687D02*
X1745Y2687D01*
X1785Y2687D02*
X1794Y2687D01*
X1835Y2687D02*
X1845Y2687D01*
X1885Y2687D02*
X1894Y2687D01*
X1935Y2687D02*
X1945Y2687D01*
X1985Y2687D02*
X1994Y2687D01*
X1735Y2686D02*
X1745Y2686D01*
X1784Y2686D02*
X1794Y2686D01*
X1835Y2686D02*
X1845Y2686D01*
X1884Y2686D02*
X1894Y2686D01*
X1935Y2686D02*
X1945Y2686D01*
X1984Y2686D02*
X1994Y2686D01*
X1735Y2685D02*
X1746Y2685D01*
X1784Y2685D02*
X1794Y2685D01*
X1835Y2685D02*
X1846Y2685D01*
X1884Y2685D02*
X1894Y2685D01*
X1935Y2685D02*
X1946Y2685D01*
X1984Y2685D02*
X1994Y2685D01*
X1735Y2684D02*
X1746Y2684D01*
X1784Y2684D02*
X1794Y2684D01*
X1835Y2684D02*
X1846Y2684D01*
X1884Y2684D02*
X1894Y2684D01*
X1935Y2684D02*
X1946Y2684D01*
X1984Y2684D02*
X1994Y2684D01*
X1735Y2683D02*
X1746Y2683D01*
X1783Y2683D02*
X1794Y2683D01*
X1835Y2683D02*
X1846Y2683D01*
X1883Y2683D02*
X1894Y2683D01*
X1935Y2683D02*
X1946Y2683D01*
X1983Y2683D02*
X1994Y2683D01*
X1735Y2682D02*
X1747Y2682D01*
X1783Y2682D02*
X1794Y2682D01*
X1835Y2682D02*
X1847Y2682D01*
X1883Y2682D02*
X1894Y2682D01*
X1935Y2682D02*
X1947Y2682D01*
X1983Y2682D02*
X1994Y2682D01*
X1735Y2681D02*
X1748Y2681D01*
X1782Y2681D02*
X1794Y2681D01*
X1835Y2681D02*
X1848Y2681D01*
X1882Y2681D02*
X1894Y2681D01*
X1935Y2681D02*
X1948Y2681D01*
X1982Y2681D02*
X1994Y2681D01*
X1735Y2680D02*
X1748Y2680D01*
X1781Y2680D02*
X1794Y2680D01*
X1835Y2680D02*
X1848Y2680D01*
X1881Y2680D02*
X1894Y2680D01*
X1935Y2680D02*
X1948Y2680D01*
X1981Y2680D02*
X1994Y2680D01*
X1735Y2679D02*
X1749Y2679D01*
X1780Y2679D02*
X1794Y2679D01*
X1835Y2679D02*
X1849Y2679D01*
X1880Y2679D02*
X1894Y2679D01*
X1935Y2679D02*
X1949Y2679D01*
X1980Y2679D02*
X1994Y2679D01*
X1735Y2678D02*
X1750Y2678D01*
X1780Y2678D02*
X1794Y2678D01*
X1835Y2678D02*
X1850Y2678D01*
X1880Y2678D02*
X1894Y2678D01*
X1935Y2678D02*
X1950Y2678D01*
X1980Y2678D02*
X1994Y2678D01*
X1735Y2677D02*
X1751Y2677D01*
X1779Y2677D02*
X1794Y2677D01*
X1835Y2677D02*
X1851Y2677D01*
X1879Y2677D02*
X1894Y2677D01*
X1935Y2677D02*
X1951Y2677D01*
X1979Y2677D02*
X1994Y2677D01*
X1735Y2676D02*
X1752Y2676D01*
X1777Y2676D02*
X1794Y2676D01*
X1835Y2676D02*
X1852Y2676D01*
X1877Y2676D02*
X1894Y2676D01*
X1935Y2676D02*
X1952Y2676D01*
X1977Y2676D02*
X1994Y2676D01*
X1735Y2675D02*
X1754Y2675D01*
X1776Y2675D02*
X1794Y2675D01*
X1835Y2675D02*
X1854Y2675D01*
X1876Y2675D02*
X1894Y2675D01*
X1935Y2675D02*
X1954Y2675D01*
X1976Y2675D02*
X1994Y2675D01*
X1735Y2674D02*
X1755Y2674D01*
X1774Y2674D02*
X1794Y2674D01*
X1835Y2674D02*
X1855Y2674D01*
X1874Y2674D02*
X1894Y2674D01*
X1935Y2674D02*
X1955Y2674D01*
X1974Y2674D02*
X1994Y2674D01*
X1735Y2673D02*
X1758Y2673D01*
X1772Y2673D02*
X1794Y2673D01*
X1835Y2673D02*
X1858Y2673D01*
X1872Y2673D02*
X1894Y2673D01*
X1935Y2673D02*
X1958Y2673D01*
X1972Y2673D02*
X1994Y2673D01*
X1735Y2672D02*
X1763Y2672D01*
X1767Y2672D02*
X1794Y2672D01*
X1835Y2672D02*
X1863Y2672D01*
X1867Y2672D02*
X1894Y2672D01*
X1935Y2672D02*
X1963Y2672D01*
X1967Y2672D02*
X1994Y2672D01*
X1735Y2671D02*
X1794Y2671D01*
X1835Y2671D02*
X1894Y2671D01*
X1935Y2671D02*
X1994Y2671D01*
X1735Y2670D02*
X1794Y2670D01*
X1835Y2670D02*
X1894Y2670D01*
X1935Y2670D02*
X1994Y2670D01*
X1735Y2669D02*
X1794Y2669D01*
X1835Y2669D02*
X1894Y2669D01*
X1935Y2669D02*
X1994Y2669D01*
X1735Y2668D02*
X1794Y2668D01*
X1835Y2668D02*
X1894Y2668D01*
X1935Y2668D02*
X1994Y2668D01*
X1735Y2667D02*
X1794Y2667D01*
X1835Y2667D02*
X1894Y2667D01*
X1935Y2667D02*
X1994Y2667D01*
X1735Y2666D02*
X1794Y2666D01*
X1835Y2666D02*
X1894Y2666D01*
X1935Y2666D02*
X1994Y2666D01*
X1735Y2665D02*
X1794Y2665D01*
X1835Y2665D02*
X1894Y2665D01*
X1935Y2665D02*
X1994Y2665D01*
X1735Y2664D02*
X1794Y2664D01*
X1835Y2664D02*
X1894Y2664D01*
X1935Y2664D02*
X1994Y2664D01*
X1735Y2663D02*
X1794Y2663D01*
X1835Y2663D02*
X1894Y2663D01*
X1935Y2663D02*
X1994Y2663D01*
X1735Y2662D02*
X1794Y2662D01*
X1835Y2662D02*
X1894Y2662D01*
X1935Y2662D02*
X1994Y2662D01*
X1735Y2661D02*
X1794Y2661D01*
X1835Y2661D02*
X1894Y2661D01*
X1935Y2661D02*
X1994Y2661D01*
X1735Y2660D02*
X1794Y2660D01*
X1835Y2660D02*
X1894Y2660D01*
X1935Y2660D02*
X1994Y2660D01*
X1735Y2659D02*
X1794Y2659D01*
X1835Y2659D02*
X1894Y2659D01*
X1935Y2659D02*
X1994Y2659D01*
X1736Y2658D02*
X1794Y2658D01*
X1836Y2658D02*
X1894Y2658D01*
X1936Y2658D02*
X1994Y2658D01*
X1736Y2657D02*
X1794Y2657D01*
X1836Y2657D02*
X1894Y2657D01*
X1936Y2657D02*
X1994Y2657D01*
X1736Y2656D02*
X1794Y2656D01*
X1836Y2656D02*
X1894Y2656D01*
X1936Y2656D02*
X1994Y2656D01*
X1736Y2655D02*
X1793Y2655D01*
X1836Y2655D02*
X1893Y2655D01*
X1936Y2655D02*
X1993Y2655D01*
X1736Y2654D02*
X1793Y2654D01*
X1836Y2654D02*
X1893Y2654D01*
X1936Y2654D02*
X1993Y2654D01*
X1737Y2653D02*
X1793Y2653D01*
X1837Y2653D02*
X1893Y2653D01*
X1937Y2653D02*
X1993Y2653D01*
X1737Y2652D02*
X1793Y2652D01*
X1837Y2652D02*
X1893Y2652D01*
X1937Y2652D02*
X1993Y2652D01*
X1737Y2651D02*
X1792Y2651D01*
X1837Y2651D02*
X1892Y2651D01*
X1937Y2651D02*
X1992Y2651D01*
X1738Y2650D02*
X1792Y2650D01*
X1838Y2650D02*
X1892Y2650D01*
X1938Y2650D02*
X1992Y2650D01*
X1738Y2649D02*
X1791Y2649D01*
X1838Y2649D02*
X1891Y2649D01*
X1938Y2649D02*
X1991Y2649D01*
X1739Y2648D02*
X1791Y2648D01*
X1839Y2648D02*
X1891Y2648D01*
X1939Y2648D02*
X1991Y2648D01*
X1739Y2647D02*
X1790Y2647D01*
X1839Y2647D02*
X1890Y2647D01*
X1939Y2647D02*
X1990Y2647D01*
X1740Y2646D02*
X1790Y2646D01*
X1840Y2646D02*
X1890Y2646D01*
X1940Y2646D02*
X1990Y2646D01*
X1740Y2645D02*
X1789Y2645D01*
X1840Y2645D02*
X1889Y2645D01*
X1940Y2645D02*
X1989Y2645D01*
X1741Y2644D02*
X1788Y2644D01*
X1841Y2644D02*
X1888Y2644D01*
X1941Y2644D02*
X1988Y2644D01*
X1742Y2643D02*
X1788Y2643D01*
X1842Y2643D02*
X1888Y2643D01*
X1942Y2643D02*
X1988Y2643D01*
X1743Y2642D02*
X1787Y2642D01*
X1843Y2642D02*
X1887Y2642D01*
X1943Y2642D02*
X1987Y2642D01*
X1744Y2641D02*
X1786Y2641D01*
X1844Y2641D02*
X1886Y2641D01*
X1944Y2641D02*
X1986Y2641D01*
X1745Y2640D02*
X1785Y2640D01*
X1845Y2640D02*
X1885Y2640D01*
X1945Y2640D02*
X1985Y2640D01*
X1746Y2639D02*
X1784Y2639D01*
X1846Y2639D02*
X1884Y2639D01*
X1946Y2639D02*
X1984Y2639D01*
X1747Y2638D02*
X1782Y2638D01*
X1847Y2638D02*
X1882Y2638D01*
X1947Y2638D02*
X1982Y2638D01*
X1748Y2637D02*
X1781Y2637D01*
X1848Y2637D02*
X1881Y2637D01*
X1948Y2637D02*
X1981Y2637D01*
X1750Y2636D02*
X1779Y2636D01*
X1850Y2636D02*
X1879Y2636D01*
X1950Y2636D02*
X1979Y2636D01*
X1752Y2635D02*
X1778Y2635D01*
X1852Y2635D02*
X1878Y2635D01*
X1952Y2635D02*
X1978Y2635D01*
X1754Y2634D02*
X1775Y2634D01*
X1854Y2634D02*
X1875Y2634D01*
X1954Y2634D02*
X1975Y2634D01*
X1757Y2633D02*
X1772Y2633D01*
X1857Y2633D02*
X1872Y2633D01*
X1957Y2633D02*
X1972Y2633D01*
X1762Y2632D02*
X1767Y2632D01*
X1862Y2632D02*
X1867Y2632D01*
X1962Y2632D02*
X1967Y2632D01*
D02*
G04 End of Copper0*
M02*