; NON-PLATED HOLES START AT T1
; THROUGH (PLATED) HOLES START AT T100
M48
INCH
T1C0.125984
T2C0.130000
T100C0.039370
T101C0.038000
T102C0.015748
T103C0.098425
T104C0.040000
T105C0.035000
T106C0.031497
%
T1
X032652Y034907
X001652Y001907
X063652Y034907
X032652Y001907
X063652Y001907
X001652Y034907
T2
X018652Y032807
T100
X047652Y026907
X010152Y010207
X018152Y010207
X011652Y021907
X013652Y021907
X015652Y021907
X010152Y015207
X018152Y015207
X012652Y021907
X014652Y021907
X016652Y021907
X028652Y009907
X047652Y032907
X038652Y019907
X029652Y009907
X047652Y024907
X036652Y020907
X047652Y029907
X010152Y013207
X018152Y013207
X010152Y018207
X018152Y018207
X031652Y009907
X033652Y009907
X047652Y030907
X030652Y009907
X032652Y009907
X034652Y009907
X047652Y027907
X010152Y011207
X018152Y011207
X010152Y016207
X018152Y016207
X047652Y025907
X010152Y014207
X018152Y014207
X010152Y019207
X018152Y019207
X047652Y031907
X036652Y018907
X047652Y023907
X047652Y028907
X010152Y012207
X018152Y012207
X010152Y017207
X018152Y017207
T101
X005652Y016907
X040652Y029907
X005652Y009907
X005652Y013907
X005652Y006907
X056652Y023907
X023152Y019407
X005652Y018907
X023152Y020407
X005652Y015907
X040652Y028907
X005652Y008907
X056652Y025907
X005652Y005907
X005652Y017907
X005652Y014907
X040652Y027907
X005652Y007907
X056652Y024907
X005652Y004907
T102
X028652Y013907
X007086Y010313
X017167Y025913
X030127Y013193
X008286Y011993
X008286Y011033
X025087Y013673
X036626Y006914
X007806Y021593
T103
X018152Y021707
X010152Y008707
X018152Y008707
X010152Y021707
T104
X001652Y027285
X045652Y016907
X019652Y026907
X045652Y014269
X048290Y016907
X009652Y033907
X047471Y013088
X048290Y014269
X007652Y033907
X046471Y013088
X001652Y025907
X047471Y018088
X045101Y015588
X046471Y018088
X048841Y015588
X018652Y026907
X017652Y026907
X008652Y033907
T105
X029652Y019907
X031652Y032907
X032652Y019907
X045652Y006907
X007652Y028907
X038652Y006907
X027652Y028907
X009652Y028907
X027652Y032907
X049652Y006907
X042652Y006907
X029652Y028907
T106
X022652Y013907
X022652Y012923
X035652Y032907
X035652Y031923
T00
M30
