G04 MADE WITH FRITZING*
G04 WWW.FRITZING.ORG*
G04 DOUBLE SIDED*
G04 HOLES PLATED*
G04 CONTOUR ON CENTER OF CONTOUR VECTOR*
%ASAXBY*%
%FSLAX23Y23*%
%MOIN*%
%OFA0B0*%
%SFA1.0B1.0*%
%ADD10C,0.148425*%
%ADD11C,0.080000*%
%ADD12C,0.070000*%
%ADD13C,0.140000*%
%ADD14C,0.085000*%
%ADD15C,0.084000*%
%ADD16C,0.072992*%
%ADD17C,0.090000*%
%ADD18C,0.074000*%
%ADD19C,0.088000*%
%ADD20C,0.049370*%
%ADD21C,0.135984*%
%ADD22R,0.085000X0.085000*%
%ADD23R,0.072992X0.072992*%
%ADD24R,0.090000X0.090000*%
%ADD25R,0.001000X0.001000*%
%LNMASK1*%
G90*
G70*
G54D10*
X1815Y2171D03*
X1815Y871D03*
G54D11*
X1665Y2191D03*
X1565Y2191D03*
X1465Y2191D03*
X1365Y2191D03*
X1265Y2191D03*
X1165Y2191D03*
X1815Y1021D03*
X1815Y1121D03*
X1815Y1221D03*
X1815Y1321D03*
X1815Y1421D03*
X1815Y1521D03*
X1815Y1621D03*
X1815Y1721D03*
X1815Y1821D03*
G54D10*
X1015Y871D03*
G54D11*
X1815Y1921D03*
G54D10*
X1015Y2171D03*
G54D11*
X1015Y1921D03*
X1015Y1821D03*
X1015Y1721D03*
X1015Y1621D03*
X1015Y1521D03*
X1015Y1421D03*
X1015Y1321D03*
X1015Y1221D03*
X1015Y1121D03*
X1015Y1021D03*
G54D12*
X1765Y2691D03*
X1865Y2691D03*
X1965Y2691D03*
G54D13*
X1865Y3281D03*
G54D12*
X1765Y2691D03*
X1865Y2691D03*
X1965Y2691D03*
G54D13*
X1865Y3281D03*
G54D14*
X2765Y2891D03*
X2965Y2891D03*
X765Y2891D03*
X965Y2891D03*
G54D15*
X765Y3391D03*
X865Y3391D03*
X965Y3391D03*
X765Y3391D03*
X865Y3391D03*
X965Y3391D03*
G54D16*
X3565Y3192D03*
X3565Y3291D03*
G54D14*
X2765Y3291D03*
X3165Y3291D03*
G54D17*
X165Y2591D03*
X165Y2729D03*
G54D18*
X4565Y1427D03*
X4647Y1809D03*
X4747Y1309D03*
X4829Y1691D03*
X4747Y1809D03*
X4829Y1427D03*
X4647Y1309D03*
X4510Y1559D03*
X4884Y1559D03*
X4565Y1691D03*
G54D14*
X3865Y691D03*
X4265Y691D03*
X4565Y691D03*
X4965Y691D03*
X2965Y1991D03*
X3265Y1991D03*
G54D15*
X3665Y2091D03*
X3665Y1891D03*
X3865Y1991D03*
X3665Y2091D03*
X3665Y1891D03*
X3865Y1991D03*
G54D16*
X2265Y1292D03*
X2265Y1391D03*
G54D19*
X2315Y2041D03*
X2315Y1941D03*
X565Y1891D03*
X565Y1791D03*
X565Y1691D03*
X565Y1591D03*
X565Y1491D03*
X565Y1391D03*
G54D11*
X4765Y2391D03*
X4765Y2491D03*
X4765Y2591D03*
X4765Y2691D03*
X4765Y2791D03*
X4765Y2891D03*
X4765Y2991D03*
X4765Y3091D03*
X4765Y3191D03*
X4765Y3291D03*
G54D19*
X4065Y2991D03*
X4065Y2891D03*
X4065Y2791D03*
X5665Y2591D03*
X5665Y2491D03*
X5665Y2391D03*
X565Y991D03*
X565Y891D03*
X565Y791D03*
X565Y691D03*
X565Y591D03*
X565Y491D03*
G54D20*
X829Y1199D03*
X709Y1031D03*
X829Y1103D03*
X3013Y1319D03*
X781Y2159D03*
X1717Y2591D03*
X2509Y1367D03*
G54D21*
X165Y3491D03*
X165Y191D03*
X6365Y191D03*
X6365Y3491D03*
X3265Y191D03*
X3265Y3491D03*
G54D11*
X3465Y991D03*
X3365Y991D03*
X3265Y991D03*
X3165Y991D03*
X3065Y991D03*
X2965Y991D03*
X2865Y991D03*
G54D20*
X2865Y1391D03*
X3663Y691D03*
G54D22*
X2765Y2891D03*
X765Y2891D03*
G54D23*
X3565Y3192D03*
G54D24*
X165Y2591D03*
G54D23*
X2265Y1292D03*
G54D25*
X1758Y2756D02*
X1772Y2756D01*
X1858Y2756D02*
X1872Y2756D01*
X1958Y2756D02*
X1972Y2756D01*
X1754Y2755D02*
X1775Y2755D01*
X1854Y2755D02*
X1875Y2755D01*
X1954Y2755D02*
X1975Y2755D01*
X1752Y2754D02*
X1778Y2754D01*
X1852Y2754D02*
X1878Y2754D01*
X1952Y2754D02*
X1978Y2754D01*
X1750Y2753D02*
X1780Y2753D01*
X1850Y2753D02*
X1880Y2753D01*
X1950Y2753D02*
X1980Y2753D01*
X1748Y2752D02*
X1782Y2752D01*
X1848Y2752D02*
X1882Y2752D01*
X1948Y2752D02*
X1982Y2752D01*
X1746Y2751D02*
X1783Y2751D01*
X1846Y2751D02*
X1883Y2751D01*
X1946Y2751D02*
X1983Y2751D01*
X1745Y2750D02*
X1785Y2750D01*
X1845Y2750D02*
X1885Y2750D01*
X1945Y2750D02*
X1985Y2750D01*
X1743Y2749D02*
X1786Y2749D01*
X1843Y2749D02*
X1886Y2749D01*
X1943Y2749D02*
X1986Y2749D01*
X1742Y2748D02*
X1787Y2748D01*
X1842Y2748D02*
X1887Y2748D01*
X1942Y2748D02*
X1987Y2748D01*
X1741Y2747D02*
X1789Y2747D01*
X1841Y2747D02*
X1889Y2747D01*
X1941Y2747D02*
X1989Y2747D01*
X1740Y2746D02*
X1790Y2746D01*
X1840Y2746D02*
X1890Y2746D01*
X1940Y2746D02*
X1990Y2746D01*
X1739Y2745D02*
X1790Y2745D01*
X1839Y2745D02*
X1890Y2745D01*
X1939Y2745D02*
X1990Y2745D01*
X1738Y2744D02*
X1791Y2744D01*
X1838Y2744D02*
X1891Y2744D01*
X1938Y2744D02*
X1991Y2744D01*
X1737Y2743D02*
X1792Y2743D01*
X1837Y2743D02*
X1892Y2743D01*
X1937Y2743D02*
X1992Y2743D01*
X1737Y2742D02*
X1793Y2742D01*
X1837Y2742D02*
X1893Y2742D01*
X1937Y2742D02*
X1993Y2742D01*
X1736Y2741D02*
X1793Y2741D01*
X1836Y2741D02*
X1893Y2741D01*
X1936Y2741D02*
X1993Y2741D01*
X1735Y2740D02*
X1794Y2740D01*
X1835Y2740D02*
X1894Y2740D01*
X1935Y2740D02*
X1994Y2740D01*
X1735Y2739D02*
X1795Y2739D01*
X1835Y2739D02*
X1895Y2739D01*
X1935Y2739D02*
X1995Y2739D01*
X1734Y2738D02*
X1795Y2738D01*
X1834Y2738D02*
X1895Y2738D01*
X1934Y2738D02*
X1995Y2738D01*
X1734Y2737D02*
X1796Y2737D01*
X1834Y2737D02*
X1896Y2737D01*
X1934Y2737D02*
X1996Y2737D01*
X1733Y2736D02*
X1796Y2736D01*
X1833Y2736D02*
X1896Y2736D01*
X1933Y2736D02*
X1996Y2736D01*
X1733Y2735D02*
X1797Y2735D01*
X1833Y2735D02*
X1897Y2735D01*
X1933Y2735D02*
X1997Y2735D01*
X1733Y2734D02*
X1797Y2734D01*
X1833Y2734D02*
X1897Y2734D01*
X1933Y2734D02*
X1997Y2734D01*
X1732Y2733D02*
X1797Y2733D01*
X1832Y2733D02*
X1897Y2733D01*
X1932Y2733D02*
X1997Y2733D01*
X1732Y2732D02*
X1798Y2732D01*
X1832Y2732D02*
X1898Y2732D01*
X1932Y2732D02*
X1998Y2732D01*
X1732Y2731D02*
X1798Y2731D01*
X1832Y2731D02*
X1898Y2731D01*
X1932Y2731D02*
X1998Y2731D01*
X1731Y2730D02*
X1798Y2730D01*
X1831Y2730D02*
X1898Y2730D01*
X1931Y2730D02*
X1998Y2730D01*
X1731Y2729D02*
X1798Y2729D01*
X1831Y2729D02*
X1898Y2729D01*
X1931Y2729D02*
X1998Y2729D01*
X1731Y2728D02*
X1799Y2728D01*
X1831Y2728D02*
X1899Y2728D01*
X1931Y2728D02*
X1999Y2728D01*
X1731Y2727D02*
X1799Y2727D01*
X1831Y2727D02*
X1899Y2727D01*
X1931Y2727D02*
X1999Y2727D01*
X1731Y2726D02*
X1799Y2726D01*
X1831Y2726D02*
X1899Y2726D01*
X1931Y2726D02*
X1999Y2726D01*
X1730Y2725D02*
X1799Y2725D01*
X1830Y2725D02*
X1899Y2725D01*
X1930Y2725D02*
X1999Y2725D01*
X1730Y2724D02*
X1799Y2724D01*
X1830Y2724D02*
X1899Y2724D01*
X1930Y2724D02*
X1999Y2724D01*
X1730Y2723D02*
X1799Y2723D01*
X1830Y2723D02*
X1899Y2723D01*
X1930Y2723D02*
X1999Y2723D01*
X1730Y2722D02*
X1799Y2722D01*
X1830Y2722D02*
X1899Y2722D01*
X1930Y2722D02*
X1999Y2722D01*
X1730Y2721D02*
X1799Y2721D01*
X1830Y2721D02*
X1899Y2721D01*
X1930Y2721D02*
X1999Y2721D01*
X1730Y2720D02*
X1799Y2720D01*
X1830Y2720D02*
X1899Y2720D01*
X1930Y2720D02*
X1999Y2720D01*
X1730Y2719D02*
X1799Y2719D01*
X1830Y2719D02*
X1899Y2719D01*
X1930Y2719D02*
X1999Y2719D01*
X1730Y2718D02*
X1799Y2718D01*
X1830Y2718D02*
X1899Y2718D01*
X1930Y2718D02*
X1999Y2718D01*
X1730Y2717D02*
X1799Y2717D01*
X1830Y2717D02*
X1899Y2717D01*
X1930Y2717D02*
X1999Y2717D01*
X1730Y2716D02*
X1799Y2716D01*
X1830Y2716D02*
X1899Y2716D01*
X1930Y2716D02*
X1999Y2716D01*
X1730Y2715D02*
X1799Y2715D01*
X1830Y2715D02*
X1899Y2715D01*
X1930Y2715D02*
X1999Y2715D01*
X1730Y2714D02*
X1799Y2714D01*
X1830Y2714D02*
X1899Y2714D01*
X1930Y2714D02*
X1999Y2714D01*
X1730Y2713D02*
X1799Y2713D01*
X1830Y2713D02*
X1899Y2713D01*
X1930Y2713D02*
X1999Y2713D01*
X1730Y2712D02*
X1799Y2712D01*
X1830Y2712D02*
X1899Y2712D01*
X1930Y2712D02*
X1999Y2712D01*
X1730Y2711D02*
X1799Y2711D01*
X1830Y2711D02*
X1899Y2711D01*
X1930Y2711D02*
X1999Y2711D01*
X1730Y2710D02*
X1799Y2710D01*
X1830Y2710D02*
X1899Y2710D01*
X1930Y2710D02*
X1999Y2710D01*
X1730Y2709D02*
X1799Y2709D01*
X1830Y2709D02*
X1899Y2709D01*
X1930Y2709D02*
X1999Y2709D01*
X1730Y2708D02*
X1799Y2708D01*
X1830Y2708D02*
X1899Y2708D01*
X1930Y2708D02*
X1999Y2708D01*
X1730Y2707D02*
X1799Y2707D01*
X1830Y2707D02*
X1899Y2707D01*
X1930Y2707D02*
X1999Y2707D01*
X1730Y2706D02*
X1759Y2706D01*
X1770Y2706D02*
X1799Y2706D01*
X1830Y2706D02*
X1859Y2706D01*
X1870Y2706D02*
X1899Y2706D01*
X1930Y2706D02*
X1959Y2706D01*
X1970Y2706D02*
X1999Y2706D01*
X1730Y2705D02*
X1757Y2705D01*
X1772Y2705D02*
X1799Y2705D01*
X1830Y2705D02*
X1857Y2705D01*
X1872Y2705D02*
X1899Y2705D01*
X1930Y2705D02*
X1957Y2705D01*
X1972Y2705D02*
X1999Y2705D01*
X1730Y2704D02*
X1756Y2704D01*
X1774Y2704D02*
X1799Y2704D01*
X1830Y2704D02*
X1856Y2704D01*
X1874Y2704D02*
X1899Y2704D01*
X1930Y2704D02*
X1956Y2704D01*
X1974Y2704D02*
X1999Y2704D01*
X1730Y2703D02*
X1754Y2703D01*
X1775Y2703D02*
X1799Y2703D01*
X1830Y2703D02*
X1854Y2703D01*
X1875Y2703D02*
X1899Y2703D01*
X1930Y2703D02*
X1954Y2703D01*
X1975Y2703D02*
X1999Y2703D01*
X1730Y2702D02*
X1753Y2702D01*
X1776Y2702D02*
X1799Y2702D01*
X1830Y2702D02*
X1853Y2702D01*
X1876Y2702D02*
X1899Y2702D01*
X1930Y2702D02*
X1953Y2702D01*
X1976Y2702D02*
X1999Y2702D01*
X1730Y2701D02*
X1752Y2701D01*
X1777Y2701D02*
X1799Y2701D01*
X1830Y2701D02*
X1852Y2701D01*
X1877Y2701D02*
X1899Y2701D01*
X1930Y2701D02*
X1952Y2701D01*
X1977Y2701D02*
X1999Y2701D01*
X1730Y2700D02*
X1752Y2700D01*
X1778Y2700D02*
X1799Y2700D01*
X1830Y2700D02*
X1852Y2700D01*
X1878Y2700D02*
X1899Y2700D01*
X1930Y2700D02*
X1952Y2700D01*
X1978Y2700D02*
X1999Y2700D01*
X1730Y2699D02*
X1751Y2699D01*
X1778Y2699D02*
X1799Y2699D01*
X1830Y2699D02*
X1851Y2699D01*
X1878Y2699D02*
X1899Y2699D01*
X1930Y2699D02*
X1951Y2699D01*
X1978Y2699D02*
X1999Y2699D01*
X1730Y2698D02*
X1751Y2698D01*
X1779Y2698D02*
X1799Y2698D01*
X1830Y2698D02*
X1851Y2698D01*
X1879Y2698D02*
X1899Y2698D01*
X1930Y2698D02*
X1951Y2698D01*
X1979Y2698D02*
X1999Y2698D01*
X1730Y2697D02*
X1750Y2697D01*
X1779Y2697D02*
X1799Y2697D01*
X1830Y2697D02*
X1850Y2697D01*
X1879Y2697D02*
X1899Y2697D01*
X1930Y2697D02*
X1950Y2697D01*
X1979Y2697D02*
X1999Y2697D01*
X1730Y2696D02*
X1750Y2696D01*
X1780Y2696D02*
X1799Y2696D01*
X1830Y2696D02*
X1850Y2696D01*
X1880Y2696D02*
X1899Y2696D01*
X1930Y2696D02*
X1950Y2696D01*
X1980Y2696D02*
X1999Y2696D01*
X1730Y2695D02*
X1750Y2695D01*
X1780Y2695D02*
X1799Y2695D01*
X1830Y2695D02*
X1850Y2695D01*
X1880Y2695D02*
X1899Y2695D01*
X1930Y2695D02*
X1950Y2695D01*
X1980Y2695D02*
X1999Y2695D01*
X1730Y2694D02*
X1749Y2694D01*
X1780Y2694D02*
X1799Y2694D01*
X1830Y2694D02*
X1849Y2694D01*
X1880Y2694D02*
X1899Y2694D01*
X1930Y2694D02*
X1949Y2694D01*
X1980Y2694D02*
X1999Y2694D01*
X1730Y2693D02*
X1749Y2693D01*
X1780Y2693D02*
X1799Y2693D01*
X1830Y2693D02*
X1849Y2693D01*
X1880Y2693D02*
X1899Y2693D01*
X1930Y2693D02*
X1949Y2693D01*
X1980Y2693D02*
X1999Y2693D01*
X1730Y2692D02*
X1749Y2692D01*
X1780Y2692D02*
X1799Y2692D01*
X1830Y2692D02*
X1849Y2692D01*
X1880Y2692D02*
X1899Y2692D01*
X1930Y2692D02*
X1949Y2692D01*
X1980Y2692D02*
X1999Y2692D01*
X1730Y2691D02*
X1749Y2691D01*
X1780Y2691D02*
X1799Y2691D01*
X1830Y2691D02*
X1849Y2691D01*
X1880Y2691D02*
X1899Y2691D01*
X1930Y2691D02*
X1949Y2691D01*
X1980Y2691D02*
X1999Y2691D01*
X1730Y2690D02*
X1749Y2690D01*
X1780Y2690D02*
X1799Y2690D01*
X1830Y2690D02*
X1849Y2690D01*
X1880Y2690D02*
X1899Y2690D01*
X1930Y2690D02*
X1949Y2690D01*
X1980Y2690D02*
X1999Y2690D01*
X1730Y2689D02*
X1750Y2689D01*
X1780Y2689D02*
X1799Y2689D01*
X1830Y2689D02*
X1850Y2689D01*
X1880Y2689D02*
X1899Y2689D01*
X1930Y2689D02*
X1950Y2689D01*
X1980Y2689D02*
X1999Y2689D01*
X1730Y2688D02*
X1750Y2688D01*
X1780Y2688D02*
X1799Y2688D01*
X1830Y2688D02*
X1850Y2688D01*
X1880Y2688D02*
X1899Y2688D01*
X1930Y2688D02*
X1950Y2688D01*
X1980Y2688D02*
X1999Y2688D01*
X1730Y2687D02*
X1750Y2687D01*
X1779Y2687D02*
X1799Y2687D01*
X1830Y2687D02*
X1850Y2687D01*
X1879Y2687D02*
X1899Y2687D01*
X1930Y2687D02*
X1950Y2687D01*
X1979Y2687D02*
X1999Y2687D01*
X1730Y2686D02*
X1750Y2686D01*
X1779Y2686D02*
X1799Y2686D01*
X1830Y2686D02*
X1850Y2686D01*
X1879Y2686D02*
X1899Y2686D01*
X1930Y2686D02*
X1950Y2686D01*
X1979Y2686D02*
X1999Y2686D01*
X1730Y2685D02*
X1751Y2685D01*
X1779Y2685D02*
X1799Y2685D01*
X1830Y2685D02*
X1851Y2685D01*
X1879Y2685D02*
X1899Y2685D01*
X1930Y2685D02*
X1951Y2685D01*
X1979Y2685D02*
X1999Y2685D01*
X1730Y2684D02*
X1751Y2684D01*
X1778Y2684D02*
X1799Y2684D01*
X1830Y2684D02*
X1851Y2684D01*
X1878Y2684D02*
X1899Y2684D01*
X1930Y2684D02*
X1951Y2684D01*
X1978Y2684D02*
X1999Y2684D01*
X1730Y2683D02*
X1752Y2683D01*
X1777Y2683D02*
X1799Y2683D01*
X1830Y2683D02*
X1852Y2683D01*
X1877Y2683D02*
X1899Y2683D01*
X1930Y2683D02*
X1952Y2683D01*
X1977Y2683D02*
X1999Y2683D01*
X1730Y2682D02*
X1753Y2682D01*
X1777Y2682D02*
X1799Y2682D01*
X1830Y2682D02*
X1853Y2682D01*
X1877Y2682D02*
X1899Y2682D01*
X1930Y2682D02*
X1953Y2682D01*
X1977Y2682D02*
X1999Y2682D01*
X1730Y2681D02*
X1754Y2681D01*
X1776Y2681D02*
X1799Y2681D01*
X1830Y2681D02*
X1854Y2681D01*
X1876Y2681D02*
X1899Y2681D01*
X1930Y2681D02*
X1954Y2681D01*
X1976Y2681D02*
X1999Y2681D01*
X1730Y2680D02*
X1755Y2680D01*
X1774Y2680D02*
X1799Y2680D01*
X1830Y2680D02*
X1855Y2680D01*
X1874Y2680D02*
X1899Y2680D01*
X1930Y2680D02*
X1955Y2680D01*
X1974Y2680D02*
X1999Y2680D01*
X1730Y2679D02*
X1756Y2679D01*
X1773Y2679D02*
X1799Y2679D01*
X1830Y2679D02*
X1856Y2679D01*
X1873Y2679D02*
X1899Y2679D01*
X1930Y2679D02*
X1956Y2679D01*
X1973Y2679D02*
X1999Y2679D01*
X1730Y2678D02*
X1758Y2678D01*
X1771Y2678D02*
X1799Y2678D01*
X1830Y2678D02*
X1858Y2678D01*
X1871Y2678D02*
X1899Y2678D01*
X1930Y2678D02*
X1958Y2678D01*
X1971Y2678D02*
X1999Y2678D01*
X1730Y2677D02*
X1762Y2677D01*
X1767Y2677D02*
X1799Y2677D01*
X1830Y2677D02*
X1862Y2677D01*
X1867Y2677D02*
X1899Y2677D01*
X1930Y2677D02*
X1962Y2677D01*
X1967Y2677D02*
X1999Y2677D01*
X1730Y2676D02*
X1799Y2676D01*
X1830Y2676D02*
X1899Y2676D01*
X1930Y2676D02*
X1999Y2676D01*
X1730Y2675D02*
X1799Y2675D01*
X1830Y2675D02*
X1899Y2675D01*
X1930Y2675D02*
X1999Y2675D01*
X1730Y2674D02*
X1799Y2674D01*
X1830Y2674D02*
X1899Y2674D01*
X1930Y2674D02*
X1999Y2674D01*
X1730Y2673D02*
X1799Y2673D01*
X1830Y2673D02*
X1899Y2673D01*
X1930Y2673D02*
X1999Y2673D01*
X1730Y2672D02*
X1799Y2672D01*
X1830Y2672D02*
X1899Y2672D01*
X1930Y2672D02*
X1999Y2672D01*
X1730Y2671D02*
X1799Y2671D01*
X1830Y2671D02*
X1899Y2671D01*
X1930Y2671D02*
X1999Y2671D01*
X1730Y2670D02*
X1799Y2670D01*
X1830Y2670D02*
X1899Y2670D01*
X1930Y2670D02*
X1999Y2670D01*
X1730Y2669D02*
X1799Y2669D01*
X1830Y2669D02*
X1899Y2669D01*
X1930Y2669D02*
X1999Y2669D01*
X1730Y2668D02*
X1799Y2668D01*
X1830Y2668D02*
X1899Y2668D01*
X1930Y2668D02*
X1999Y2668D01*
X1730Y2667D02*
X1799Y2667D01*
X1830Y2667D02*
X1899Y2667D01*
X1930Y2667D02*
X1999Y2667D01*
X1730Y2666D02*
X1799Y2666D01*
X1830Y2666D02*
X1899Y2666D01*
X1930Y2666D02*
X1999Y2666D01*
X1730Y2665D02*
X1799Y2665D01*
X1830Y2665D02*
X1899Y2665D01*
X1930Y2665D02*
X1999Y2665D01*
X1730Y2664D02*
X1799Y2664D01*
X1830Y2664D02*
X1899Y2664D01*
X1930Y2664D02*
X1999Y2664D01*
X1730Y2663D02*
X1799Y2663D01*
X1830Y2663D02*
X1899Y2663D01*
X1930Y2663D02*
X1999Y2663D01*
X1730Y2662D02*
X1799Y2662D01*
X1830Y2662D02*
X1899Y2662D01*
X1930Y2662D02*
X1999Y2662D01*
X1730Y2661D02*
X1799Y2661D01*
X1830Y2661D02*
X1899Y2661D01*
X1930Y2661D02*
X1999Y2661D01*
X1730Y2660D02*
X1799Y2660D01*
X1830Y2660D02*
X1899Y2660D01*
X1930Y2660D02*
X1999Y2660D01*
X1730Y2659D02*
X1799Y2659D01*
X1830Y2659D02*
X1899Y2659D01*
X1930Y2659D02*
X1999Y2659D01*
X1731Y2658D02*
X1799Y2658D01*
X1831Y2658D02*
X1899Y2658D01*
X1931Y2658D02*
X1999Y2658D01*
X1731Y2657D02*
X1799Y2657D01*
X1831Y2657D02*
X1899Y2657D01*
X1931Y2657D02*
X1999Y2657D01*
X1731Y2656D02*
X1799Y2656D01*
X1831Y2656D02*
X1899Y2656D01*
X1931Y2656D02*
X1999Y2656D01*
X1731Y2655D02*
X1799Y2655D01*
X1831Y2655D02*
X1899Y2655D01*
X1931Y2655D02*
X1999Y2655D01*
X1731Y2654D02*
X1798Y2654D01*
X1831Y2654D02*
X1898Y2654D01*
X1931Y2654D02*
X1998Y2654D01*
X1732Y2653D02*
X1798Y2653D01*
X1832Y2653D02*
X1898Y2653D01*
X1932Y2653D02*
X1998Y2653D01*
X1732Y2652D02*
X1798Y2652D01*
X1832Y2652D02*
X1898Y2652D01*
X1932Y2652D02*
X1998Y2652D01*
X1732Y2651D02*
X1797Y2651D01*
X1832Y2651D02*
X1897Y2651D01*
X1932Y2651D02*
X1997Y2651D01*
X1732Y2650D02*
X1797Y2650D01*
X1832Y2650D02*
X1897Y2650D01*
X1932Y2650D02*
X1997Y2650D01*
X1733Y2649D02*
X1797Y2649D01*
X1833Y2649D02*
X1897Y2649D01*
X1933Y2649D02*
X1997Y2649D01*
X1733Y2648D02*
X1796Y2648D01*
X1833Y2648D02*
X1896Y2648D01*
X1933Y2648D02*
X1996Y2648D01*
X1734Y2647D02*
X1796Y2647D01*
X1834Y2647D02*
X1896Y2647D01*
X1934Y2647D02*
X1996Y2647D01*
X1734Y2646D02*
X1795Y2646D01*
X1834Y2646D02*
X1895Y2646D01*
X1934Y2646D02*
X1995Y2646D01*
X1735Y2645D02*
X1795Y2645D01*
X1835Y2645D02*
X1895Y2645D01*
X1935Y2645D02*
X1995Y2645D01*
X1735Y2644D02*
X1794Y2644D01*
X1835Y2644D02*
X1894Y2644D01*
X1935Y2644D02*
X1994Y2644D01*
X1736Y2643D02*
X1794Y2643D01*
X1836Y2643D02*
X1894Y2643D01*
X1936Y2643D02*
X1994Y2643D01*
X1737Y2642D02*
X1793Y2642D01*
X1837Y2642D02*
X1893Y2642D01*
X1937Y2642D02*
X1993Y2642D01*
X1737Y2641D02*
X1792Y2641D01*
X1837Y2641D02*
X1892Y2641D01*
X1937Y2641D02*
X1992Y2641D01*
X1738Y2640D02*
X1792Y2640D01*
X1838Y2640D02*
X1892Y2640D01*
X1938Y2640D02*
X1992Y2640D01*
X1739Y2639D02*
X1791Y2639D01*
X1839Y2639D02*
X1891Y2639D01*
X1939Y2639D02*
X1991Y2639D01*
X1740Y2638D02*
X1790Y2638D01*
X1840Y2638D02*
X1890Y2638D01*
X1940Y2638D02*
X1990Y2638D01*
X1741Y2637D02*
X1789Y2637D01*
X1841Y2637D02*
X1889Y2637D01*
X1941Y2637D02*
X1989Y2637D01*
X1742Y2636D02*
X1788Y2636D01*
X1842Y2636D02*
X1888Y2636D01*
X1942Y2636D02*
X1988Y2636D01*
X1743Y2635D02*
X1787Y2635D01*
X1843Y2635D02*
X1887Y2635D01*
X1943Y2635D02*
X1987Y2635D01*
X1744Y2634D02*
X1785Y2634D01*
X1844Y2634D02*
X1885Y2634D01*
X1944Y2634D02*
X1985Y2634D01*
X1746Y2633D02*
X1784Y2633D01*
X1846Y2633D02*
X1884Y2633D01*
X1946Y2633D02*
X1984Y2633D01*
X1747Y2632D02*
X1782Y2632D01*
X1847Y2632D02*
X1882Y2632D01*
X1947Y2632D02*
X1982Y2632D01*
X1749Y2631D02*
X1781Y2631D01*
X1849Y2631D02*
X1881Y2631D01*
X1949Y2631D02*
X1981Y2631D01*
X1751Y2630D02*
X1779Y2630D01*
X1851Y2630D02*
X1879Y2630D01*
X1951Y2630D02*
X1979Y2630D01*
X1754Y2629D02*
X1776Y2629D01*
X1854Y2629D02*
X1876Y2629D01*
X1954Y2629D02*
X1976Y2629D01*
X1757Y2628D02*
X1773Y2628D01*
X1857Y2628D02*
X1873Y2628D01*
X1957Y2628D02*
X1973Y2628D01*
X1762Y2627D02*
X1767Y2627D01*
X1862Y2627D02*
X1867Y2627D01*
X1962Y2627D02*
X1967Y2627D01*
D02*
G04 End of Mask1*
M02*